<svg xmlns="http://www.w3.org/2000/svg" viewBox="0 0 1000 1000" width="1000" height="1000"><rect x="0" y="0" width="1000" height="1000" fill="#FFFFFF"/><g transform="translate(500 640) scale(1.5)"><circle cx="-90" cy="-180" r="40" fill="#FFFFFF" stroke="#000000" stroke-width="13"/><circle cx="90" cy="-180" r="40" fill="#FFFFFF" stroke="#000000" stroke-width="13"/><ellipse cx="0" cy="30" rx="125" ry="140" fill="#FFFFFF" stroke="#000000" stroke-width="13"/><ellipse cx="-55" cy="150" rx="38" ry="24" fill="#FFFFFF" stroke="#000000" stroke-width="13"/><ellipse cx="55" cy="150" rx="38" ry="24" fill="#FFFFFF" stroke="#000000" stroke-width="13"/><ellipse cx="-100" cy="-10" rx="30" ry="18" fill="#FFFFFF" stroke="#000000" stroke-width="13"/><ellipse cx="100" cy="-10" rx="30" ry="18" fill="#FFFFFF" stroke="#000000" stroke-width="13"/><circle cx="0" cy="-140" r="95" fill="#FFFFFF" stroke="#000000" stroke-width="13"/><ellipse cx="0" cy="-110" rx="46" ry="34" fill="#FFFFFF" stroke="#000000" stroke-width="13"/><circle cx="0" cy="-128" r="12" fill="#000" stroke="#000000" stroke-width="13"/><circle cx="-36" cy="-160" r="15" fill="#FFFFFF" stroke="#000000" stroke-width="6"/><circle cx="36" cy="-160" r="15" fill="#FFFFFF" stroke="#000000" stroke-width="6"/><circle cx="-32" cy="-157" r="6" fill="#000" stroke="#000000" stroke-width="13"/><circle cx="40" cy="-157" r="6" fill="#000" stroke="#000000" stroke-width="13"/><path d="M-24,-95 Q0,-78 24,-95" fill="none" stroke="#000000" stroke-width="8" stroke-linecap="round" stroke-linejoin="round"/><circle cx="-48" cy="-100" r="14" fill="#FFB3C6" opacity="0.85"/><circle cx="48" cy="-100" r="14" fill="#FFB3C6" opacity="0.85"/><polygon points="-26,-35 0,-10 26,-35 0,-55" fill="#FFFFFF" stroke="#000000" stroke-width="8" stroke-linejoin="round"/></g><text x="500" y="972" font-family="'Arial Black', Arial, sans-serif" font-weight="700" font-size="26" fill="#CCCCCC" text-anchor="middle" >12</text></svg>