<svg xmlns="http://www.w3.org/2000/svg" viewBox="0 0 1000 1000" width="1000" height="1000"><rect x="0" y="0" width="1000" height="1000" fill="#FFFFFF"/><circle cx="850" cy="160" r="55" fill="#FFD23F" stroke="#000000" stroke-width="9"/><line x1="923.0" y1="160.0" x2="945.0" y2="160.0" stroke="#FFD23F" stroke-width="11" stroke-linecap="round"/><line x1="901.6187950266179" y1="211.61879502661796" x2="917.175144212722" y2="227.175144212722" stroke="#FFD23F" stroke-width="11" stroke-linecap="round"/><line x1="850.0" y1="233.0" x2="850.0" y2="255.0" stroke="#FFD23F" stroke-width="11" stroke-linecap="round"/><line x1="798.3812049733821" y1="211.618795026618" x2="782.824855787278" y2="227.17514421272202" stroke="#FFD23F" stroke-width="11" stroke-linecap="round"/><line x1="777.0" y1="160.0" x2="755.0" y2="160.0" stroke="#FFD23F" stroke-width="11" stroke-linecap="round"/><line x1="798.3812049733821" y1="108.38120497338204" x2="782.824855787278" y2="92.824855787278" stroke="#FFD23F" stroke-width="11" stroke-linecap="round"/><line x1="850.0" y1="87.0" x2="850.0" y2="65.0" stroke="#FFD23F" stroke-width="11" stroke-linecap="round"/><line x1="901.6187950266179" y1="108.38120497338201" x2="917.175144212722" y2="92.82485578727797" stroke="#FFD23F" stroke-width="11" stroke-linecap="round"/><path d="M0,830 L1000,830" fill="none" stroke="#000000" stroke-width="8" stroke-linecap="round" stroke-linejoin="round"/><line x1="170" y1="620" x2="170" y2="830" stroke="#000000" stroke-width="12" stroke-linecap="round"/><path d="M170,725.0 Q198,717.0 176,743.0 Z" fill="#FFFFFF" stroke="#000000" stroke-width="6" stroke-linecap="round" stroke-linejoin="round"/><circle cx="170.0" cy="539.4" r="34.5" fill="#FFFFFF" stroke="#000000" stroke-width="6"/><circle cx="170.0" cy="640.6" r="34.5" fill="#FFFFFF" stroke="#000000" stroke-width="6"/><circle cx="119.4" cy="590.0" r="34.5" fill="#FFFFFF" stroke="#000000" stroke-width="6"/><circle cx="220.6" cy="590.0" r="34.5" fill="#FFFFFF" stroke="#000000" stroke-width="6"/><circle cx="135.5" cy="555.5" r="34.5" fill="#FFFFFF" stroke="#000000" stroke-width="6"/><circle cx="204.5" cy="624.5" r="34.5" fill="#FFFFFF" stroke="#000000" stroke-width="6"/><circle cx="135.5" cy="624.5" r="34.5" fill="#FFFFFF" stroke="#000000" stroke-width="6"/><circle cx="204.5" cy="555.5" r="34.5" fill="#FFFFFF" stroke="#000000" stroke-width="6"/><circle cx="170" cy="590" r="36.8" fill="#FFFFFF" stroke="#000000" stroke-width="6"/><line x1="390" y1="690" x2="390" y2="830" stroke="#000000" stroke-width="12" stroke-linecap="round"/><path d="M390,760.0 Q418,752.0 396,778.0 Z" fill="#FFFFFF" stroke="#000000" stroke-width="6" stroke-linecap="round" stroke-linejoin="round"/><circle cx="390.0" cy="608.2" r="28.5" fill="#FFFFFF" stroke="#000000" stroke-width="6"/><circle cx="390.0" cy="691.8" r="28.5" fill="#FFFFFF" stroke="#000000" stroke-width="6"/><circle cx="348.2" cy="650.0" r="28.5" fill="#FFFFFF" stroke="#000000" stroke-width="6"/><circle cx="431.8" cy="650.0" r="28.5" fill="#FFFFFF" stroke="#000000" stroke-width="6"/><circle cx="361.5" cy="621.5" r="28.5" fill="#FFFFFF" stroke="#000000" stroke-width="6"/><circle cx="418.5" cy="678.5" r="28.5" fill="#FFFFFF" stroke="#000000" stroke-width="6"/><circle cx="361.5" cy="678.5" r="28.5" fill="#FFFFFF" stroke="#000000" stroke-width="6"/><circle cx="418.5" cy="621.5" r="28.5" fill="#FFFFFF" stroke="#000000" stroke-width="6"/><circle cx="390" cy="650" r="30.4" fill="#FFFFFF" stroke="#000000" stroke-width="6"/><line x1="610" y1="600" x2="610" y2="830" stroke="#000000" stroke-width="12" stroke-linecap="round"/><path d="M610,715.0 Q638,707.0 616,733.0 Z" fill="#FFFFFF" stroke="#000000" stroke-width="6" stroke-linecap="round" stroke-linejoin="round"/><circle cx="610.0" cy="502.8" r="39.0" fill="#FFFFFF" stroke="#000000" stroke-width="6"/><circle cx="610.0" cy="617.2" r="39.0" fill="#FFFFFF" stroke="#000000" stroke-width="6"/><circle cx="552.8" cy="560.0" r="39.0" fill="#FFFFFF" stroke="#000000" stroke-width="6"/><circle cx="667.2" cy="560.0" r="39.0" fill="#FFFFFF" stroke="#000000" stroke-width="6"/><circle cx="571.0" cy="521.0" r="39.0" fill="#FFFFFF" stroke="#000000" stroke-width="6"/><circle cx="649.0" cy="599.0" r="39.0" fill="#FFFFFF" stroke="#000000" stroke-width="6"/><circle cx="571.0" cy="599.0" r="39.0" fill="#FFFFFF" stroke="#000000" stroke-width="6"/><circle cx="649.0" cy="521.0" r="39.0" fill="#FFFFFF" stroke="#000000" stroke-width="6"/><circle cx="610" cy="560" r="41.6" fill="#FFFFFF" stroke="#000000" stroke-width="6"/><line x1="830" y1="680" x2="830" y2="830" stroke="#000000" stroke-width="12" stroke-linecap="round"/><path d="M830,755.0 Q858,747.0 836,773.0 Z" fill="#FFFFFF" stroke="#000000" stroke-width="6" stroke-linecap="round" stroke-linejoin="round"/><circle cx="830.0" cy="601.0" r="30.0" fill="#FFFFFF" stroke="#000000" stroke-width="6"/><circle cx="830.0" cy="689.0" r="30.0" fill="#FFFFFF" stroke="#000000" stroke-width="6"/><circle cx="786.0" cy="645.0" r="30.0" fill="#FFFFFF" stroke="#000000" stroke-width="6"/><circle cx="874.0" cy="645.0" r="30.0" fill="#FFFFFF" stroke="#000000" stroke-width="6"/><circle cx="800.0" cy="615.0" r="30.0" fill="#FFFFFF" stroke="#000000" stroke-width="6"/><circle cx="860.0" cy="675.0" r="30.0" fill="#FFFFFF" stroke="#000000" stroke-width="6"/><circle cx="800.0" cy="675.0" r="30.0" fill="#FFFFFF" stroke="#000000" stroke-width="6"/><circle cx="860.0" cy="615.0" r="30.0" fill="#FFFFFF" stroke="#000000" stroke-width="6"/><circle cx="830" cy="645" r="32.0" fill="#FFFFFF" stroke="#000000" stroke-width="6"/><polygon points="80.0,198.0 85.87785252292473,211.9098300562505 100.92324335849338,213.20162612375117 89.51056516295154,223.0901699437495 92.9312755504344,237.79837387624883 80.0,230.0 67.0687244495656,237.79837387624883 70.48943483704846,223.0901699437495 59.07675664150662,213.20162612375117 74.12214747707527,211.90983005625054" fill="#FFFFFF" stroke="#000000" stroke-width="8" stroke-linejoin="round"/><polygon points="940.0,360.0 945.2900672706322,372.71884705062547 959.0211303259031,373.819660112501 948.5595086466564,382.78115294937453 951.7557050458495,396.180339887499 940.0,389.0 928.2442949541505,396.180339887499 931.4404913533436,382.78115294937453 920.9788696740969,373.8196601125011 934.7099327293678,372.71884705062547" fill="#FFFFFF" stroke="#000000" stroke-width="8" stroke-linejoin="round"/><text x="500" y="972" font-family="'Arial Black', Arial, sans-serif" font-weight="700" font-size="26" fill="#CCCCCC" text-anchor="middle" >17</text></svg>