<svg xmlns="http://www.w3.org/2000/svg" viewBox="0 0 1000 1000" width="1000" height="1000"><rect x="0" y="0" width="1000" height="1000" fill="#FFFFFF"/><g transform="translate(500 650) scale(1.5)"><rect x="-140" y="0" width="280" height="190" rx="14" fill="#FFFFFF" stroke="#000000" stroke-width="13"/><polygon points="-170,10 0,-160 170,10" fill="#FFFFFF" stroke="#000000" stroke-width="8" stroke-linejoin="round"/><rect x="-35" y="80" width="70" height="110" rx="10" fill="#FFFFFF" stroke="#000000" stroke-width="13"/><circle cx="20" cy="135" r="6" fill="#000" stroke="#000000" stroke-width="13"/><rect x="-115" y="40" width="55" height="55" rx="8" fill="#FFFFFF" stroke="#000000" stroke-width="13"/><line x1="-87" y1="40" x2="-87" y2="95" stroke="#000000" stroke-width="6" stroke-linecap="round"/><line x1="-115" y1="67" x2="-60" y2="67" stroke="#000000" stroke-width="6" stroke-linecap="round"/><rect x="60" y="40" width="55" height="55" rx="8" fill="#FFFFFF" stroke="#000000" stroke-width="13"/><line x1="88" y1="40" x2="88" y2="95" stroke="#000000" stroke-width="6" stroke-linecap="round"/><line x1="60" y1="67" x2="115" y2="67" stroke="#000000" stroke-width="6" stroke-linecap="round"/><rect x="90" y="-140" width="26" height="60" rx="6" fill="#FFFFFF" stroke="#000000" stroke-width="13"/></g><circle cx="850" cy="160" r="46" fill="#FFD23F" stroke="#000000" stroke-width="9"/><line x1="914.0" y1="160.0" x2="936.0" y2="160.0" stroke="#FFD23F" stroke-width="11" stroke-linecap="round"/><line x1="895.2548339959391" y1="205.25483399593904" x2="910.8111831820431" y2="220.81118318204307" stroke="#FFD23F" stroke-width="11" stroke-linecap="round"/><line x1="850.0" y1="224.0" x2="850.0" y2="246.0" stroke="#FFD23F" stroke-width="11" stroke-linecap="round"/><line x1="804.7451660040609" y1="205.25483399593904" x2="789.1888168179569" y2="220.8111831820431" stroke="#FFD23F" stroke-width="11" stroke-linecap="round"/><line x1="786.0" y1="160.0" x2="764.0" y2="160.0" stroke="#FFD23F" stroke-width="11" stroke-linecap="round"/><line x1="804.7451660040609" y1="114.74516600406096" x2="789.1888168179569" y2="99.18881681795692" stroke="#FFD23F" stroke-width="11" stroke-linecap="round"/><line x1="850.0" y1="96.0" x2="850.0" y2="74.0" stroke="#FFD23F" stroke-width="11" stroke-linecap="round"/><line x1="895.2548339959391" y1="114.74516600406095" x2="910.8111831820431" y2="99.1888168179569" stroke="#FFD23F" stroke-width="11" stroke-linecap="round"/><polygon points="120.0,158.0 125.87785252292473,171.9098300562505 140.92324335849338,173.20162612375117 129.51056516295154,183.0901699437495 132.9312755504344,197.79837387624883 120.0,190.0 107.0687244495656,197.79837387624883 110.48943483704846,183.0901699437495 99.07675664150662,173.20162612375117 114.12214747707527,171.90983005625054" fill="#FFFFFF" stroke="#000000" stroke-width="8" stroke-linejoin="round"/><path d="M120,900 Q150,760 190,900" fill="none" stroke="#000000" stroke-width="10" stroke-linecap="round" stroke-linejoin="round"/><circle cx="160" cy="730" r="60" fill="#FFFFFF" stroke="#000000" stroke-width="13"/><text x="500" y="972" font-family="'Arial Black', Arial, sans-serif" font-weight="700" font-size="26" fill="#CCCCCC" text-anchor="middle" >22</text></svg>